<svg xmlns="http://www.w3.org/2000/svg" viewBox="0 0 609.88 321.24"><defs><style>.cls-1{fill:#e2dcac;opacity:0.55;}.cls-2,.cls-6{fill:#9a9cdc;}.cls-2{opacity:0.56;}.cls-3{fill:#d16ba8;opacity:0.72;}.cls-4,.cls-5{fill:none;stroke:#000;}.cls-4{stroke-linejoin:round;stroke-width:1.5px;}.cls-5{stroke-miterlimit:10;stroke-width:0.5px;stroke-dasharray:2;}.cls-7{fill:#d36eaa;}</style></defs><g id="OBJECTS"><path class="cls-1" d="M93.58,241.51c60.76-13.37,102.24-4.27,131.27,11.84,43,23.84,42.14,53.86,82.91,67.12,47.22,15.35,67.88-18.57,128.31-4.94,39.21,8.84,76.8,33.57,74,47.38-2.24,11.14-30.55,14.19-45.4,15.79-49.86,5.37-80.55-6.8-113.5-12.83-86.58-15.86-100.66,26.77-177.66,5.92-23.39-6.33-72-19.48-86.86-60.21C76.07,282.57,87.73,253.69,93.58,241.51Z" transform="translate(-82.38 -63.69)"/><path class="cls-2" d="M195.3,130.74c46.16-3.56,66.58,29,96,15,30-14.22,24.68-55.45,44.06-61,40.12-11.5,142.32,142.45,108.24,190.71-22.5,31.85-82.34-13.51-292.23-54.36-16.46-3.2-43.45-8.25-46.57-23.09C100.26,176.4,146.36,134.51,195.3,130.74Z" transform="translate(-82.38 -63.69)"/><path class="cls-3" d="M494,370.73c51.93,26.95,130.81-9.85,167.44-46.9,5.16-5.22,42.27-42.75,27.26-63.81-15.4-21.63-67.17.22-119.55-27.33-39.55-20.8-40.24-49.12-61.51-48.5-28,.81-52.65,50.68-54.75,92C452.13,291.34,449.28,347.51,494,370.73Z" transform="translate(-82.38 -63.69)"/><path class="cls-4" d="M143.41,155.19s12-12,21-13.22,15.46-.25,23.44,15.46,19,19.7,35.17,16.71,42.4-18.21,68.83-33.67,48.89-31.42,66.84-23.44" transform="translate(-82.38 -63.69)"/><path class="cls-4" d="M315.15,126.72c-8.88-15.93-5.64-26.15-3.14-38.87S328,66.9,333.45,64.9s8.11,3,6.15,5S318.83,85.1,317.24,86.79s-3.54,17.28-3.55,20.57a37.7,37.7,0,0,0,5,17.42" transform="translate(-82.38 -63.69)"/><path class="cls-4" d="M340.24,69a7.89,7.89,0,0,1,7.12,4.24" transform="translate(-82.38 -63.69)"/><path class="cls-4" d="M357.64,116.61l-15.33-14s2.12-22.57,3.74-27.43a5.55,5.55,0,0,1,6.23-4l19.08,17" transform="translate(-82.38 -63.69)"/><path class="cls-4" d="M148.27,150.84a24,24,0,0,0,0-2.89c-.12-.87,9.61-13.46,14.22-16.33s14.09-1.37,26.19,15.09,23.81,19.82,39.53,16.21,82.6-46.31,82.6-46.31" transform="translate(-82.38 -63.69)"/><path class="cls-4" d="M140.73,148.56c3-36.27-1.53-53.26-9.67-55.41-6-1.58-12.46,4.21-10,16s13.46,22,17.33,32S142,157.81,142,157.81l-2-.41s-2.62-13.06-13.84-27.53-15.27-35.29-2.31-41.77c9.11-4.55,20.71,1.74,22,21.82,1.36,20.83-3.08,47.48-3.08,47.48s-.1,8.88-4.21,28.9-7.11,35.16,15.15,49,85.11,41.33,120.65,64" transform="translate(-82.38 -63.69)"/><path class="cls-4" d="M139.68,155.91l-3.5,20.66s-16.09,47-18.52,63.79" transform="translate(-82.38 -63.69)"/><path class="cls-4" d="M139.92,179.58S219,216,220,217s21.2,16.46,21.2,16.46l-30.93,2.24L136,201.85" transform="translate(-82.38 -63.69)"/><line class="cls-4" x1="87.84" y1="180.77" x2="94.75" y2="156.94"/><path class="cls-4" d="M193.89,204.6s64.49-31.75,94.92-48.69,61.85-35.89,69.83-36.14" transform="translate(-82.38 -63.69)"/><path class="cls-4" d="M379.53,90.16S362.76,108,359.52,112s0,11.78,0,11.78l7.85-5.23.19-3.69s18.52-18.2,19.27-19.32S379.53,90.16,379.53,90.16Z" transform="translate(-82.38 -63.69)"/><path class="cls-4" d="M354.11,113.38s15.51-26.78,19.81-29,5.61,1.31,5.61,5.8" transform="translate(-82.38 -63.69)"/><path class="cls-4" d="M358.64,123.82l-5.48,6s10.66,15.71,12.15,16.09,15-9.54,15-11-11-16.27-11-16.27h-1.87" transform="translate(-82.38 -63.69)"/><path class="cls-4" d="M378.91,132.25c7.35-.38,10.72-3,20.07-13.66s23.76-9.92,16.28,4.11c-.19-2.8-3.56-2.43-9.17,3s-15.9,16.28-20.76,17.59-12.85-1.56-12.85-1.56" transform="translate(-82.38 -63.69)"/><path class="cls-4" d="M407.59,148.89s-8.23,16.09-8,16.65,17.8,10.85,17.8,10.85,6.9-14,7.08-15S407.59,148.89,407.59,148.89Z" transform="translate(-82.38 -63.69)"/><path class="cls-4" d="M415.26,122.7c-.94,9.92-7.67,26.19-7.67,26.19" transform="translate(-82.38 -63.69)"/><path class="cls-4" d="M403.11,157.78c-5.25-5.9-3.19-12.63,3-32.09" transform="translate(-82.38 -63.69)"/><path class="cls-4" d="M424.42,161.42c6.92,1.5,11.41.19,18.52-7.85s20.39-9,18.33,7.66c-.37-4.67-5.42-6.17-14.4,0s-14,12.72-26.28,8.47" transform="translate(-82.38 -63.69)"/><line class="cls-4" x1="300.6" y1="35.9" x2="318.07" y2="53.36"/><line class="cls-4" x1="290.7" y1="60.13" x2="308.12" y2="63.77"/><path class="cls-4" d="M413.67,131l9.72,7.45s5.52-1.49,7-1.3,13.72,15.24,13.72,15.24" transform="translate(-82.38 -63.69)"/><path class="cls-4" d="M379.53,143.42a33.59,33.59,0,0,1-8.17,16.09c-5,5.15-64.84,63.26-69.83,68s-.5,19,15.71,10,73.33-74.65,76.57-78a22.33,22.33,0,0,1,7.27-4.84" transform="translate(-82.38 -63.69)"/><path class="cls-4" d="M208,211.21s111.24-59,116.8-61c5.06-1.88,17.33,1.11,17.76,16.1a10.63,10.63,0,0,1-3.1,7.69l-102,104.39" transform="translate(-82.38 -63.69)"/><path class="cls-4" d="M160.87,326.52s-27.69-18.2-29.93-18.95-25.44,3-25.44,3-6.23-7.48,6.24-13.22L109,259.19s2.12-20.33,4.93-21.45,5.61,4.86,6.92,19.64c0,0,16.09,18.52,36.85,29.93s46.76,15.15,68.65,15,66-6.17,94.27-5.61,105.68,26.93,136.55,35.91,108.67,16.46,142.9-7.29,44.15-58.11,47.14-68.34S630,228.26,630,228.26s-.75-4.74,8.48-2.49c0,0,1-5.24,19.45,1s23.2,32.18,22,36.17-29.93,60.35-75.82,87.29S535,372.91,508.53,366.68,476.55,345.73,441,352s-46.48,12.47-78.16,0-61.35-26.18-72.57-27.18-35.17,6.23-36.66,8.73.24,5.73,1,6.48,25.19,13.47,24.2,14-26.69,5-27.81,4-32.64-14.72-55.91-15.71-37.74,8.23-51.71,7.23-12.22-8.48-9.48-9.23,24.2-8.73,24.2-8.73Z" transform="translate(-82.38 -63.69)"/><path class="cls-4" d="M105.5,310.56s-3,20.7,5,27.62c0,0,11.22,36.48,59.67,38.91s105.12-2.53,119.15-5.75,23.94-10,24.32-10.52,1.87-4.49,1.87-4.49L338,354.08l31.79,4.12,3.74,7.48s27.88,9.54,31.06,10.1S416,371.34,416,371.34l15.33,1.82,4.12,7.67s36.47,2.81,38.34,1.87,6.92-5.42,6.92-5.42l16.28.37V384s39.28.38,40.4,0,8-8.42,8-8.42l19.83-.56v4.68s34.61-9,41.53-11.41,13.09-9.91,13.09-9.91l8.79-3.56v3.37s23-14.59,37.41-31.8,13.78-63.47,13.78-63.47" transform="translate(-82.38 -63.69)"/><path class="cls-4" d="M241.48,274.23s50.32-11.05,96.71-5.82,90.43,35.57,164.5,31.33" transform="translate(-82.38 -63.69)"/><path class="cls-4" d="M472.06,336.06s7.54-22.64,28.87-35.32S589.4,274.2,606.61,267s13.65-25.72,4.68-32.83-11.41-9.35-10.67-10.47,29.63,3.16,29.63,3.16" transform="translate(-82.38 -63.69)"/><path class="cls-4" d="M303.28,267.12s77.36-74.4,79.7-75.21,18,9.91,16.56,11.66-42.7,68.17-42.7,68.17" transform="translate(-82.38 -63.69)"/><path class="cls-4" d="M373.08,276.13s10.75-15.95,12.5-15.95,10.72,3.5,11,4.24-4.13,17.74-4.13,17.74" transform="translate(-82.38 -63.69)"/><path class="cls-4" d="M404.44,285.94s32.45-58.43,36.6-58.43,20,5.49,20.45,8.23-11.91,61.2-11.91,61.2" transform="translate(-82.38 -63.69)"/><path class="cls-4" d="M492.32,300.12s16-54.66,18.21-55.65,18.2,3,19.2,4S541,285.85,541,285.85" transform="translate(-82.38 -63.69)"/><path class="cls-4" d="M562.72,279.79s-9.16-28.83-21.7-49l-2.81-4.48,5-10,10.23,2.24s17.45,5.24,18.2,5,29,.19,29,.19" transform="translate(-82.38 -63.69)"/><path class="cls-4" d="M455.29,203.32l18.33,9.35s8.41-16.83,8.23-17.77-18.71-10.47-19.27-10.47S455.29,203.32,455.29,203.32Z" transform="translate(-82.38 -63.69)"/><path class="cls-4" d="M508.78,226.52s-.37-15.72,3-15.72,15,4.12,15,4.12l.93,16.88Z" transform="translate(-82.38 -63.69)"/><path class="cls-4" d="M452,158.34c4.26,2.71,6.13,11.31,3.33,19.54s3.76,15.1,3.76,15.1" transform="translate(-82.38 -63.69)"/><path class="cls-4" d="M464.19,185.14c-1.61-2.21,2.32-14.55-2.92-23.91" transform="translate(-82.38 -63.69)"/><path class="cls-4" d="M477.36,205.06c13.28.32,19.45-6.51,19.45-6.51s6.73-4.77,8.23,1.4c1.31-3.36,4.68-14.77-2.35-15.52s-11.12,10.66-20.84,10.47" transform="translate(-82.38 -63.69)"/><path class="cls-4" d="M511.78,210.8A25,25,0,0,1,505,200" transform="translate(-82.38 -63.69)"/><path class="cls-4" d="M495.2,200s5.31,15.69,13.75,19.63" transform="translate(-82.38 -63.69)"/><path class="cls-4" d="M527.23,223.71c10.73.56,7.37-12.91,7.37-12.91s-8.13-2.32-10.43,3.24" transform="translate(-82.38 -63.69)"/><path class="cls-4" d="M464.19,168.4s15.88,13,28,23.47" transform="translate(-82.38 -63.69)"/><path class="cls-4" d="M507,203.94a27.1,27.1,0,0,1,15.62,5S535,200.18,542.83,217" transform="translate(-82.38 -63.69)"/><path class="cls-4" d="M428.9,171c-.56,0-4.29,8.83-10.09,20.85s-5.34,20.43,7.19,23.92,16.26-23.1,32.41-21.06" transform="translate(-82.38 -63.69)"/><path class="cls-4" d="M480.61,205c3.11,1.82.24,12.8-3.88,30.38s-7.47,39.28-8.16,42.52,9.41,7,12.4,3.49,16.84-54.58,19.08-57.65,6.95-5.3,6.95-5.3" transform="translate(-82.38 -63.69)"/><path class="cls-4" d="M554,282.16c-18.14-52.65-24.41-58.43-24.41-58.43" transform="translate(-82.38 -63.69)"/><path class="cls-5" d="M477.36,337s12.53-27.64,34.42-35.87,47.73-18.09,83.79-25.81c34-7.3,28.81-29.8,25.26-36.2s-13.05-12.2-14.2-15.31" transform="translate(-82.38 -63.69)"/><path class="cls-5" d="M546.55,217l-3.72,9.31a259,259,0,0,1,24,52.34" transform="translate(-82.38 -63.69)"/><path class="cls-5" d="M239.41,279.42a354.22,354.22,0,0,1,88.49-7.21c47.89,2.38,98.91,38.22,169.26,31" transform="translate(-82.38 -63.69)"/><path class="cls-5" d="M368.29,274.73s12.55-17.63,14.7-18.1,14.22,3.06,16.65,5.6-3.08,21.34-3.08,21.34" transform="translate(-82.38 -63.69)"/><line class="cls-5" x1="91.29" y1="182.56" x2="99.46" y2="159.09"/><path class="cls-5" d="M197.33,206.21S286.69,160.2,310,148s46.68-24.06,47.59-23" transform="translate(-82.38 -63.69)"/><path class="cls-5" d="M375,142.49a19.83,19.83,0,0,1-6.76,13.69c-6.61,5.49-43.4,43.28-56.74,54.87s-15,13.72-17.21,19.33,2.49,13.84,13.34,14.59,19.93-11,26.74-16.21,59.82-63.91,62.18-66.12a8.59,8.59,0,0,1,5.27-2.26" transform="translate(-82.38 -63.69)"/><path class="cls-5" d="M424.42,171s-10,20.64-13,27.53-1,17.24,9.7,21.61S437.89,217.9,441,214s10.33-16.39,16-15.49" transform="translate(-82.38 -63.69)"/><path class="cls-5" d="M475.45,209c2.28.83,1.53,4.57-1.08,15.54s-6.61,34-8.86,44-3,14.71,4.12,18.08,12.84,2.62,16.58-5.49,15.26-50.25,15.86-52.5,6.34-7,6.34-7" transform="translate(-82.38 -63.69)"/><path class="cls-5" d="M528.24,229.38s14.5,28.2,22.15,54.19" transform="translate(-82.38 -63.69)"/><path class="cls-5" d="M136.18,176.57s-6.74,25.44-5.24,36.48,2.06,18.13,25.44,31.42,79.45,36.65,110.33,55.08" transform="translate(-82.38 -63.69)"/><path class="cls-6" d="M235.71,147.74" transform="translate(-82.38 -63.69)"/><path class="cls-7" d="M579.49,94.23" transform="translate(-82.38 -63.69)"/></g></svg>